<?xml version="1.0" encoding="UTF-8"?>
<svg width="24px" height="20px" viewBox="0 0 24 20" version="1.1" xmlns="http://www.w3.org/2000/svg" xmlns:xlink="http://www.w3.org/1999/xlink">
    <title>CF414FF9-A211-4AB8-A50E-04817620F4A0</title>
    <g id="Main" stroke="none" stroke-width="1" fill="none" fill-rule="evenodd">
        <g id="PeakActivity_Home_Mobile" transform="translate(-361.000000, -45.000000)" fill="#D61E57" fill-rule="nonzero" stroke="#D61E57" stroke-width="0.5">
            <g id="Menu" transform="translate(372.500000, 55.000000) scale(-1, 1) translate(-372.500000, -55.000000) translate(361.000000, 45.000000)">
                <path d="M11.1617021,10.8553191 L1.00425532,10.8553191 C0.534225745,10.8553191 0.153191489,10.4742849 0.153191489,10.0042553 C0.153191489,9.53422574 0.534225745,9.15319149 1.00425532,9.15319149 L11.1617021,9.15319149 C11.6317317,9.15319149 12.012766,9.53422574 12.012766,10.0042553 C12.012766,10.4742849 11.6317317,10.8553191 11.1617021,10.8553191 Z" id="Path"></path>
                <path d="M21.7489362,2.02978723 L1.00425532,2.02978723 C0.534225745,2.02978723 0.153191489,1.64875298 0.153191489,1.1787234 C0.153191489,0.70869383 0.534225745,0.327659574 1.00425532,0.327659574 L21.7489362,0.327659574 C22.2189657,0.327659574 22.6,0.70869383 22.6,1.1787234 C22.6,1.64875298 22.2189657,2.02978723 21.7489362,2.02978723 Z" id="Path"></path>
                <path d="M21.7489362,19.6765957 L1.00425532,19.6765957 C0.534225745,19.6765957 0.153191489,19.2955615 0.153191489,18.8255319 C0.153191489,18.3555023 0.534225745,17.9744681 1.00425532,17.9744681 L21.7489362,17.9744681 C22.2189657,17.9744681 22.6,18.3555023 22.6,18.8255319 C22.6,19.2955615 22.2189657,19.6765957 21.7489362,19.6765957 Z" id="Path"></path>
            </g>
        </g>
    </g>
</svg>