<?xml version="1.0" encoding="UTF-8"?>
<svg width="36px" height="36px" viewBox="0 0 36 36" version="1.1" xmlns="http://www.w3.org/2000/svg" xmlns:xlink="http://www.w3.org/1999/xlink">
    <title>44C64D77-9CFD-48F3-890B-4804FE12DCA9</title>
    <g id="Main" stroke="none" stroke-width="1" fill="none" fill-rule="evenodd">
        <g id="PeakActivity_Home_Mobile_Nav" transform="translate(-123.000000, -778.000000)">
            <g id="Nav" transform="translate(93.000000, 0.000000)">
                <g id="Mobile_Phone" transform="translate(30.000000, 778.000000)">
                    <circle id="Oval" fill="#D61E57" cx="18" cy="18" r="18"></circle>
                    <path d="M18.9223464,25.4473695 L11.5486494,18.0700946 C9.73176873,16.2532926 9.63190301,13.4005073 11.2415187,11.4643985 L14.3797738,14.6025179 C13.5551672,15.5372666 13.589532,16.9616368 14.4832393,17.8552683 L19.1368109,22.5124982 C19.1368481,22.5125353 19.1369223,22.5126096 19.1369594,22.5126467 C20.0296646,23.4053876 21.453985,23.4419403 22.3899617,22.6162932 L25.528291,25.7544869 C23.5982218,27.3612498 20.7517335,27.2766775 18.9223464,25.4473695 Z M13.1955987,10.2764894 L15.5570462,12.630413 C15.774628,12.8479854 15.774628,13.2001536 15.5570462,13.4177261 L15.1633355,13.8114197 L12.0159511,10.6641713 L12.4076207,10.2758957 C12.624683,10.0588799 12.9778313,10.0588428 13.1955987,10.2764894 Z M24.362189,21.4390717 L26.7242674,23.801048 C26.9413297,24.018138 26.9413297,24.3713453 26.7242674,24.5883611 L26.3305568,24.9820547 L23.1811313,21.8327282 L23.5748048,21.4390717 C23.7918671,21.2220188 24.1450896,21.2219817 24.362189,21.4390717 Z M27.5115774,23.0137349 L25.149499,20.6517586 C24.498238,20.0005999 23.4386074,20.0005999 22.7874206,20.6517586 L21.713725,21.7253707 C21.2204084,22.2187031 20.417586,22.2185547 19.9244549,21.7255563 L15.2707348,17.0680666 C14.7762306,16.5736209 14.7761564,15.7732824 15.2707348,15.2787254 C15.443635,15.1057956 15.9402173,14.6092347 16.3443933,14.2050762 C16.9927226,13.556775 17.0017777,12.500493 16.3437624,11.8425062 L13.9823149,9.48858259 C13.331091,8.83742392 12.2714604,8.83742392 11.6219807,9.48687556 C11.135975,9.96862981 10.9792181,10.124044 10.7613023,10.3400578 C8.4129178,12.6883037 8.4129178,16.5091619 10.7611909,18.8573335 L18.134888,26.2345712 C20.4887649,28.5883835 24.2985436,28.588569 26.6526061,26.2345712 L27.5116145,25.375637 C28.1628013,24.7244783 28.1628013,23.6649307 27.5115774,23.0137349 L27.5115774,23.0137349 Z" id="Fill-1" fill="#FFFFFF"></path>
                </g>
            </g>
        </g>
    </g>
</svg>