<?xml version="1.0" encoding="UTF-8"?>
<svg width="36px" height="36px" viewBox="0 0 36 36" version="1.1" xmlns="http://www.w3.org/2000/svg" xmlns:xlink="http://www.w3.org/1999/xlink">
    <title>36E07C5D-A478-4035-A7D2-57D5CE59EB27</title>
    <g id="Main" stroke="none" stroke-width="1" fill="none" fill-rule="evenodd">
        <g id="PeakActivity_Home_Mobile_Nav" transform="translate(-179.000000, -778.000000)">
            <g id="Nav" transform="translate(93.000000, 0.000000)">
                <g id="Mobile_Email" transform="translate(86.000000, 778.000000)">
                    <circle id="Oval" fill="#D61E57" cx="18" cy="18" r="18"></circle>
                    <path d="M27.0664062,24.717152 L8.93359375,24.717152 C8.62215625,24.717152 8.36167969,24.49616 8.30199609,24.2035424 L15.6687734,19.3244009 L16.4080078,19.9370036 C16.8692344,20.3192068 17.4346602,20.5103084 18.000043,20.5103084 C18.5654258,20.5103084 19.1308086,20.3192068 19.5920781,19.9370036 L20.3313125,19.3244009 L27.6980469,24.2034996 C27.6383203,24.4962028 27.3778437,24.717152 27.0664062,24.717152 Z M8.2890625,13.2089788 L14.6352031,18.4679288 L8.2890625,22.6710949 L8.2890625,13.2089788 Z M26.5559805,12.4966988 L18.7671641,18.9511777 C18.3226094,19.3195261 17.6773047,19.3195261 17.2328359,18.9511777 L9.18594922,12.282848 L26.8140508,12.282848 L26.5559805,12.4966988 Z M21.3647969,18.4679716 L27.7109375,13.2089788 L27.7109375,22.6710949 L21.3647969,18.4679716 Z M27.0664062,11 L8.93359375,11 C7.86741016,11 7,11.8632284 7,12.9242721 L7,24.0757279 C7,25.1367716 7.86741016,26 8.93359375,26 L27.0664062,26 C28.1325898,26 29,25.1367716 29,24.0757279 L29,12.9242721 C29,11.8632284 28.1325898,11 27.0664062,11 L27.0664062,11 Z" id="Fill-1" fill="#FFFFFF"></path>
                </g>
            </g>
        </g>
    </g>
</svg>