<?xml version="1.0" encoding="UTF-8"?>
<svg width="20px" height="20px" viewBox="0 0 20 20" version="1.1" xmlns="http://www.w3.org/2000/svg" xmlns:xlink="http://www.w3.org/1999/xlink">
    <title>Close</title>
    <g id="Mobile" stroke="none" stroke-width="1" fill="none" fill-rule="evenodd">
        <g id="PeakActivity_Home_Mobile_Nav" transform="translate(-42.000000, -44.000000)" fill="#FFFFFF" fill-rule="nonzero">
            <g id="Header" transform="translate(-321.000000, 0.000000)">
                <path d="M382.705905,44.2940954 C382.517679,44.1057934 382.262345,44 381.9961,44 C381.729855,44 381.474521,44.1057934 381.286295,44.2940954 L372.999969,52.5806816 L364.713643,44.2940954 C364.460055,44.0405062 364.090441,43.9414684 363.744032,44.0342884 C363.397623,44.1271085 363.127047,44.3976849 363.034227,44.7440941 C362.941407,45.0905034 363.040445,45.4601176 363.294034,45.7137068 L371.58061,54.0000421 L363.294034,62.2863775 C362.902019,62.6783923 362.902019,63.313974 363.294034,63.7059889 C363.686048,64.0980037 364.321629,64.0980037 364.713643,63.7059889 L372.999969,55.4194026 L381.286295,63.7059889 C381.67831,64.0980037 382.313891,64.0980037 382.705905,63.7059888 C383.097919,63.313974 383.097919,62.6783923 382.705905,62.2863775 L374.419328,54.0000421 L382.705905,45.7137068 C382.894207,45.525481 383,45.2701464 383,45.0039011 C383,44.7376558 382.894207,44.4823211 382.705905,44.2940954 Z" id="Close"></path>
            </g>
        </g>
    </g>
</svg>