<?xml version="1.0" encoding="UTF-8"?>
<svg width="33px" height="22px" viewBox="0 0 33 22" version="1.1" xmlns="http://www.w3.org/2000/svg" xmlns:xlink="http://www.w3.org/1999/xlink">
    <title>F2E65FF6-AD8A-4635-AE1D-7DE22BF436E6</title>
    <g id="Main" stroke="none" stroke-width="1" fill="none" fill-rule="evenodd">
        <g id="PeakActivity_Home" transform="translate(-716.000000, -5324.000000)" fill="#D61E57">
            <g id="Footer" transform="translate(0.000000, 4815.000000)">
                <g id="Contact" transform="translate(716.300000, 505.400000)">
                    <g id="Email" transform="translate(0.000000, 4.000000)">
                        <path d="M29.1875,19.2040127 L2.8125,19.2040127 C2.3595,19.2040127 1.980625,18.894624 1.8938125,18.4849593 L12.609125,11.6541613 L13.684375,12.5118051 C14.35525,13.0468895 15.1776875,13.3144318 16.0000625,13.3144318 C16.8224375,13.3144318 17.6448125,13.0468895 18.31575,12.5118051 L19.391,11.6541613 L30.10625,18.4848995 C30.019375,18.8946839 29.6405,19.2040127 29.1875,19.2040127 Z M1.875,3.09257031 L11.10575,10.4551003 L1.875,16.3395328 L1.875,3.09257031 Z M28.4450625,2.09537833 L17.115875,11.1316487 C16.46925,11.6473365 15.530625,11.6473365 14.884125,11.1316487 L3.1795625,1.79598725 L28.8204375,1.79598725 L28.4450625,2.09537833 Z M20.89425,10.4551602 L30.125,3.09257031 L30.125,16.3395328 L20.89425,10.4551602 Z M29.1875,0 L2.8125,0 C1.2616875,0 0,1.20851982 0,2.69398088 L0,18.3060191 C0,19.7914802 1.2616875,21 2.8125,21 L29.1875,21 C30.7383125,21 32,19.7914802 32,18.3060191 L32,2.69398088 C32,1.20851982 30.7383125,0 29.1875,0 L29.1875,0 Z" id="Fill-1"></path>
                    </g>
                </g>
            </g>
        </g>
    </g>
</svg>