<?xml version="1.0" encoding="UTF-8"?>
<svg width="79px" height="15px" viewBox="0 0 79 15" version="1.1" xmlns="http://www.w3.org/2000/svg" xmlns:xlink="http://www.w3.org/1999/xlink">
    <title>2A07BCCF-B7CF-476B-BE15-3823602C6941</title>
    <g id="Desktop" stroke="none" stroke-width="1" fill="none" fill-rule="evenodd">
        <g id="PeakActivity_Contact" transform="translate(-927.000000, -1269.000000)" fill="#FFFFFF" fill-rule="nonzero">
            <g id="Intro-v2" transform="translate(0.000000, 798.000000)">
                <g id="Social" transform="translate(716.000000, 403.000000)">
                    <path d="M216.00465,82.7688135 L213.027851,82.7688135 L213.027851,75.4888011 L211,75.4888011 L211,73.1185771 L213.027772,73.1185771 L213.027772,71.4319926 C213.027772,69.4333876 213.924659,68 216.8934,68 C217.521292,68 218.507054,68.1241572 218.507054,68.1241572 L218.507054,70.3250407 L217.47168,70.3250407 C216.416714,70.3250407 216.004808,70.6398512 216.004808,71.5101914 L216.004808,73.1185771 L218.467554,73.1185771 L218.24825,75.4888011 L216.004729,75.4888011 L216.00465,82.7688135 Z M222.83499,72.9291638 C222.791619,72.9291638 222.746984,72.9307138 222.702823,72.9317988 C219.942563,72.9317988 218.679669,74.9686895 218.679669,77.8601101 C218.679669,81.5025188 220.317813,82.9603193 222.72439,82.9603193 C224.101281,82.9603193 225.00591,82.3917694 225.55575,81.3307758 L225.55575,82.769821 L228.38711,82.769821 L228.38711,73.1195846 L225.55575,73.1195846 L225.55575,74.6036581 C225.106793,73.6488414 224.176884,72.940479 222.83499,72.9291638 Z M223.554917,75.2094862 C224.714242,75.2094862 225.410074,76.00279 225.410074,77.3521662 L225.41276,78.7303728 C225.41276,79.6398512 224.838035,80.7038673 223.554917,80.7038673 C221.582287,80.7038673 221.63498,78.6142757 221.63498,77.9183136 C221.63498,75.5772301 222.685996,75.2094862 223.554917,75.2094862 Z M229.530528,77.9452065 C229.530528,76.7725335 229.47336,72.9354414 234.569176,72.9354414 C236.614723,72.9354414 237.468871,73.57351 237.468871,73.57351 L236.782361,75.6624041 C236.782361,75.6624041 235.929319,75.201581 234.817789,75.201581 C233.39413,75.201581 232.485709,76.0112377 232.485709,77.4357901 L232.487289,78.457258 C232.487289,79.826087 233.363794,80.7398279 234.820712,80.7398279 C235.833334,80.7398279 236.76664,80.2746648 236.76664,80.2746648 L237.451412,82.3199256 C237.451412,82.3199256 236.670418,82.9620243 234.583475,82.9620243 C229.731453,82.9620243 229.530635,79.5194141 229.530635,77.9452065 L229.530528,77.9452065 Z M254.070168,72.9317988 C256.830507,72.9317988 258.113309,74.9686895 258.113309,77.8601101 C258.113309,81.5025188 256.475086,82.9603193 254.068509,82.9603193 C252.691618,82.9603193 251.673782,82.3918469 251.123942,81.3307758 L251.123942,82.769821 L248.328211,82.768736 L248.328211,68.2934201 L251.296557,68.0394482 L251.296557,74.4729133 C251.724974,73.3473611 253.132912,72.9317988 254.070247,72.9317988 L254.070168,72.9317988 Z M253.237982,75.2094862 C252.078657,75.2094862 251.296557,76.00279 251.296557,77.3521662 L251.293788,78.7303728 C251.292054,79.6398512 251.835416,80.7038673 253.237982,80.7038673 C255.210612,80.7038673 255.157919,78.6142757 255.157919,77.9183136 C255.157919,75.5772301 254.106982,75.2094862 253.237982,75.2094862 Z M242.619197,72.9397039 C239.488427,72.9397039 237.835589,74.6143533 237.835589,77.5902503 L237.835589,78.143145 C237.835589,82.0055801 240.156688,83 242.9239,83 C245.613613,83 246.831082,82.2619546 246.831082,82.2619546 L246.275633,80.2965202 C246.275633,80.2965202 244.843521,80.8942882 243.279795,80.8942882 C241.658715,80.8942882 240.96154,80.4889561 240.782842,78.9606293 L247.068398,78.9606293 L247.068398,77.3838642 C247.068398,74.1557777 245.213399,72.9397039 242.619118,72.9397039 L242.619197,72.9397039 Z M242.694642,74.9078509 C243.778364,74.9078509 244.480595,75.5597923 244.442043,77.0717663 L240.788293,77.0717663 C240.851651,75.4804309 241.608945,74.9079284 242.694642,74.9079284 L242.694642,74.9078509 Z M264.032068,72.9265287 C260.817005,72.9265287 259.12443,74.7039448 259.12443,77.8891731 C259.12443,82.2594745 262.042058,82.9629544 264.03744,82.9629544 C266.958544,82.9629544 268.901944,81.4201349 268.901944,77.9288538 C268.901944,74.2950477 266.716804,72.9265287 264.032068,72.9265287 Z M263.99162,75.2173913 C265.405325,75.2173913 265.965514,76.255367 265.965514,77.4368751 L265.965514,78.4526854 C265.965514,79.8839805 265.181676,80.71185 263.986248,80.71185 C262.86824,80.71185 262.082506,79.9374564 262.082506,78.4526854 L262.082506,77.4368751 C262.082506,75.8533674 263.017471,75.2173913 263.99162,75.2173913 L263.99162,75.2173913 Z M274.81541,72.9265287 C271.600347,72.9265287 269.907772,74.7039448 269.907772,77.8891731 C269.907772,82.2594745 272.8254,82.9629544 274.820782,82.9629544 C277.741807,82.9629544 279.685286,81.4201349 279.685286,77.9288538 C279.685286,74.2950477 277.500067,72.9265287 274.81541,72.9265287 Z M274.774962,75.2173913 C276.188667,75.2173913 276.748777,76.255367 276.748777,77.4368751 L276.748777,78.4526854 C276.748777,79.8839805 275.964939,80.71185 274.76959,80.71185 C273.651582,80.71185 272.865848,79.9374564 272.865848,78.4526854 L272.865848,77.4368751 C272.865848,75.8533674 273.800813,75.2173913 274.774962,75.2173913 L274.774962,75.2173913 Z M280.807007,82.7688135 L280.807007,68.2934201 L283.783964,68.0395257 L283.783964,77.741843 L286.737458,73.1186546 L289.881342,73.1186546 L286.800342,77.9069209 L290,82.7688135 L286.847189,82.7688135 L283.783964,78.0478958 L283.783964,82.7688135 L280.807007,82.7688135 Z" id="Facebook"></path>
                </g>
            </g>
        </g>
    </g>
</svg>