<?xml version="1.0" encoding="UTF-8"?>
<svg width="21px" height="17px" viewBox="0 0 21 17" version="1.1" xmlns="http://www.w3.org/2000/svg" xmlns:xlink="http://www.w3.org/1999/xlink">
    <title>A1B7EB1A-5F32-40BB-95CD-7118722DF690</title>
    <g id="Desktop" stroke="none" stroke-width="1" fill="none" fill-rule="evenodd">
        <g id="PeakActivity_Cap_Modernization" transform="translate(-802.000000, -6380.000000)" fill="#839398">
            <g id="Footer" transform="translate(0.000000, 5720.000000)">
                <g id="Social" transform="translate(715.899792, 659.138254)">
                    <path d="M107.005724,3.03695634 C106.877471,2.89864449 106.672099,2.86343784 106.504448,2.95145447 C106.384578,3.01432349 106.151543,3.09647235 105.878272,3.1769447 C106.20603,2.74692058 106.471756,2.25821871 106.585759,1.82065031 C106.631024,1.65048482 106.563126,1.47026029 106.418946,1.36966985 C106.272252,1.26991767 106.080291,1.27159418 105.937788,1.37302287 C105.691342,1.54821788 104.552155,2.05284657 103.817006,2.21630603 C102.884029,1.37721414 101.955244,1 100.831984,1 C99.9895386,1 99.2091242,1.24057879 98.3021334,1.77873763 C96.7203483,2.7175817 96.4462393,4.74699376 96.5635948,5.99180042 C92.2700583,5.58273264 89.8617549,3.0847368 89.0058976,1.99752183 C88.9203957,1.88938711 88.7845986,1.83741538 88.647125,1.83909189 C88.5088131,1.84915094 88.3839132,1.92627027 88.3143382,2.04614054 C87.2908301,3.80060541 87.7099571,5.60620374 88.4962393,6.82083326 C88.3671482,6.73281663 88.2363806,6.63474096 88.1056129,6.52660624 C87.9798749,6.42350104 87.8063563,6.40002994 87.6596619,6.47044324 C87.5129674,6.53918004 87.419083,6.68671268 87.419083,6.84933389 C87.419083,8.69097713 88.4979158,10.0070353 89.5507627,10.7547576 C89.4476574,10.7270952 89.3370079,10.6952416 89.2204906,10.6583584 C89.0628989,10.610578 88.8918951,10.6566819 88.7829221,10.7799052 C88.6731108,10.9031285 88.6454485,11.0791617 88.7125088,11.2292091 C89.3856267,12.742257 90.7243181,13.8705464 92.2247926,14.2628491 C90.9347199,15.0482927 89.1509156,15.4514927 87.4677017,15.2528266 C87.2715503,15.2268407 87.0829432,15.3492258 87.0209124,15.5386711 C86.9588816,15.7272782 87.0385157,15.9343268 87.211196,16.0332407 C89.251506,17.1984133 91.3714502,17.7650728 93.691737,17.7650728 L93.7068255,17.7650728 C96.8762635,17.762558 99.8529032,16.3836308 102.087688,13.8822819 C104.244515,11.4689497 105.37532,8.37830852 105.143962,5.56429106 C105.698048,5.15019376 106.53714,4.3756474 107.054342,3.54409979 C107.154933,3.38315509 107.134815,3.17526819 107.005724,3.03695634 L107.005724,3.03695634 Z" id="Fill-43"></path>
                </g>
            </g>
        </g>
    </g>
</svg>