<?xml version="1.0" encoding="UTF-8"?>
<svg width="20px" height="19px" viewBox="0 0 20 19" version="1.1" xmlns="http://www.w3.org/2000/svg" xmlns:xlink="http://www.w3.org/1999/xlink">
    <title>5488EBCF-DA1A-459B-A561-A213A68580C1</title>
    <g id="Desktop" stroke="none" stroke-width="1" fill="none" fill-rule="evenodd">
        <g id="PeakActivity_Cap_Modernization" transform="translate(-715.000000, -6379.000000)" fill="#839398">
            <g id="Footer" transform="translate(0.000000, 5720.000000)">
                <g id="Social" transform="translate(715.899792, 659.138254)">
                    <path d="M15.9268191,15.5076923 C15.9268191,15.7390503 15.7390503,15.9268191 15.5076923,15.9268191 L12.9929314,15.9268191 C12.7615734,15.9268191 12.5738046,15.7390503 12.5738046,15.5076923 L12.5738046,10.8972973 C12.5738046,9.84780374 12.1035443,9.22079002 11.3164241,9.22079002 C10.529304,9.22079002 10.0590437,9.84780374 10.0590437,10.8972973 L10.0590437,15.5076923 C10.0590437,15.7390503 9.87127484,15.9268191 9.63991684,15.9268191 L7.12515593,15.9268191 C6.89379792,15.9268191 6.70602911,15.7390503 6.70602911,15.5076923 L6.70602911,7.12515593 C6.70602911,6.89379792 6.89379792,6.70602911 7.12515593,6.70602911 L9.63991684,6.70602911 C9.87127484,6.70602911 10.0590437,6.89379792 10.0590437,7.12515593 L10.0590437,7.38836757 C10.6039085,6.96253472 11.2460108,6.70602911 12.1546778,6.70602911 C14.4456249,6.70602911 15.9268191,8.35068274 15.9268191,10.8972973 L15.9268191,15.5076923 Z M4.19126819,5.86777547 C3.26667443,5.86777547 2.51476091,5.11586195 2.51476091,4.19126819 C2.51476091,3.26667443 3.26667443,2.51476091 4.19126819,2.51476091 C5.11586195,2.51476091 5.86777547,3.26667443 5.86777547,4.19126819 C5.86777547,5.11586195 5.11586195,5.86777547 4.19126819,5.86777547 L4.19126819,5.86777547 Z M5.86777547,15.5076923 C5.86777547,15.7390503 5.68000665,15.9268191 5.44864865,15.9268191 L2.93388773,15.9268191 C2.70252973,15.9268191 2.51476091,15.7390503 2.51476091,15.5076923 L2.51476091,7.12515593 C2.51476091,6.89379792 2.70252973,6.70602911 2.93388773,6.70602911 L5.44864865,6.70602911 C5.68000665,6.70602911 5.86777547,6.89379792 5.86777547,7.12515593 L5.86777547,15.5076923 Z M16.7650728,0 L1.67650728,0 C0.751913514,0 0,0.751913514 0,1.67650728 L0,16.7650728 C0,17.6896665 0.751913514,18.44158 1.67650728,18.44158 L16.7650728,18.44158 C17.6896665,18.44158 18.44158,17.6896665 18.44158,16.7650728 L18.44158,1.67650728 C18.44158,0.751913514 17.6896665,0 16.7650728,0 L16.7650728,0 Z" id="Fill-111"></path>
                </g>
            </g>
        </g>
    </g>
</svg>