<?xml version="1.0" encoding="UTF-8"?>
<svg width="20px" height="19px" viewBox="0 0 20 19" version="1.1" xmlns="http://www.w3.org/2000/svg" xmlns:xlink="http://www.w3.org/1999/xlink">
    <title>C4EAFA21-3831-45FB-A0AF-0DB182CD3C64</title>
    <g id="Desktop" stroke="none" stroke-width="1" fill="none" fill-rule="evenodd">
        <g id="PeakActivity_Cap_Modernization" transform="translate(-758.000000, -6379.000000)" fill="#839398">
            <g id="Footer" transform="translate(0.000000, 5720.000000)">
                <g id="Social" transform="translate(715.899792, 659.138254)">
                    <path d="M59.7650728,0 L44.6765073,0 C43.7519135,0 43,0.751913514 43,1.67650728 L43,16.7650728 C43,17.6896665 43.7519135,18.44158 44.6765073,18.44158 L50.9634096,18.44158 C51.1947676,18.44158 51.3825364,18.2538112 51.3825364,18.0224532 L51.3825364,12.1546778 C51.3825364,11.9233198 51.1947676,11.7355509 50.9634096,11.7355509 L50.1427593,11.7355509 C49.9114012,11.7355509 49.7236324,11.5477821 49.7236324,11.3164241 L49.7236324,8.8016632 C49.7236324,8.5703052 49.9114012,8.38253638 50.1427593,8.38253638 L50.9634096,8.38253638 C51.1947676,8.38253638 51.3825364,8.19476757 51.3825364,7.96340956 L51.3825364,7.12515593 C51.3825364,5.04544865 53.0749705,3.35301455 55.1546778,3.35301455 L57.6694387,3.35301455 C57.9007967,3.35301455 58.0885655,3.54078337 58.0885655,3.77214137 L58.0885655,6.28690229 C58.0885655,6.51826029 57.9007967,6.70602911 57.6694387,6.70602911 L55.1546778,6.70602911 C54.9233198,6.70602911 54.7355509,6.89379792 54.7355509,7.12515593 L54.7355509,7.96340956 C54.7355509,8.19476757 54.9233198,8.38253638 55.1546778,8.38253638 L57.6694387,8.38253638 C57.792662,8.38253638 57.9100175,8.43618462 57.9888133,8.53006902 C58.0692857,8.62479168 58.1036541,8.74885322 58.0826977,8.87123825 L57.6635709,11.3859992 C57.6300407,11.5880183 57.4565222,11.7355509 57.2503119,11.7355509 L55.1546778,11.7355509 C54.9233198,11.7355509 54.7355509,11.9233198 54.7355509,12.1546778 L54.7355509,18.0224532 C54.7355509,18.2538112 54.9233198,18.44158 55.1546778,18.44158 L59.7650728,18.44158 C60.6896665,18.44158 61.44158,17.6896665 61.44158,16.7650728 L61.44158,1.67650728 C61.44158,0.751913514 60.6896665,0 59.7650728,0" id="Fill-41"></path>
                </g>
            </g>
        </g>
    </g>
</svg>