<?xml version="1.0" encoding="UTF-8"?>
<svg viewBox="0 0 217 208" version="1.1" xmlns="http://www.w3.org/2000/svg" xmlns:xlink="http://www.w3.org/1999/xlink">
    <title>3B44B36A-3188-408B-8C88-7FCDC5977394</title>
    <defs>
        <rect id="path-1" x="0" y="0" width="217" height="208"></rect>
    </defs>
    <g id="Desktop" stroke="none" stroke-width="1" fill="none" fill-rule="evenodd" opacity="0.05">
        <g id="PeakActivity_Home" transform="translate(-963.000000, -5390.000000)">
            <g id="Footer" transform="translate(0.000000, 4843.000000)">
                <g id="Mark-Copy-32" transform="translate(963.000000, 547.000000)">
                    <mask id="mask-2" fill="white">
                        <use xlink:href="#path-1"></use>
                    </mask>
                    <g id="Rectangle"></g>
                    <path d="M119.661894,23.6951493 C118.168885,20.2015231 115.402318,17.495272 111.864863,16.0776228 C104.579882,13.1581633 96.2539218,16.6835837 93.3129202,23.9308008 L-49.9952606,379.450281 C-51.4226217,382.977572 -51.3869845,386.848989 -49.8939761,390.346355 C-48.4009676,393.839981 -45.6362761,396.546233 -42.121329,397.95266 C-40.4144977,398.648393 -38.6157601,399 -36.7720072,399 C-30.9275168,399 -25.733873,395.511985 -23.5468782,390.110704 L119.763178,34.5930935 C121.188664,31.0620624 121.154902,27.1943863 119.661894,23.6951493" id="Fill-24" fill="#FFFFFF" opacity="0.5" mask="url(#mask-2)"></path>
                    <path d="M263.737961,379.449907 L248.914788,342.864085 L111.120985,1.01051828 C110.627692,-0.205143934 109.44604,-1 108.131217,-1 L105.82043,-1 C104.514985,-1 103.337084,-0.214495182 102.84004,0.988075289 L92.9854337,24.7888713 C92.0513656,27.8747831 92.1901629,31.1608115 93.4224575,34.1980968 L237.291454,390.1122 C239.480325,395.511611 244.673969,398.999626 250.518459,398.999626 C252.358461,398.999626 254.157198,398.649889 255.852776,397.959767 C259.382728,396.545859 262.147419,393.839607 263.640428,390.345981 C265.135312,386.848615 265.169074,382.979068 263.737961,379.449907" id="Fill-26" fill="#FFFFFF" mask="url(#mask-2)"></path>
                </g>
            </g>
        </g>
    </g>
</svg>
