<?xml version="1.0" encoding="UTF-8"?>
<svg width="70px" height="17px" viewBox="0 0 70 17" version="1.1" xmlns="http://www.w3.org/2000/svg" xmlns:xlink="http://www.w3.org/1999/xlink">
    <title>5806F490-7FBF-445B-ABC1-428AC7CEB18E</title>
    <g id="Desktop" stroke="none" stroke-width="1" fill="none" fill-rule="evenodd">
        <g id="PeakActivity_Contact" transform="translate(-828.000000, -1269.000000)" fill="#FFFFFF" fill-rule="nonzero">
            <g id="Intro-v2" transform="translate(0.000000, 798.000000)">
                <g id="Social" transform="translate(716.000000, 403.000000)">
                    <g id="LinkedIn_Logo" transform="translate(112.000000, 68.000000)">
                        <path d="M69.0164428,15.9218648 C69.0172011,15.9218648 69.0179595,15.9218648 69.0194761,15.9218648 C69.1916176,15.9218648 69.3334258,15.7807461 69.3334258,15.6092743 C69.3334258,15.6032339 69.3334258,15.597269 69.3326674,15.5912286 C69.3326674,15.3567858 69.1908593,15.2447364 68.8989013,15.2447364 L68.4279768,15.2447364 L68.4279768,16.4724469 L68.6054266,16.4724469 L68.6054266,15.9372678 L68.823068,15.9372678 L68.827618,15.9437612 L69.1658343,16.4724469 L69.3554174,16.4724469 L68.9921762,15.9252625 L69.0164428,15.9218648 Z M68.8109347,15.7988672 L68.6054266,15.7988672 L68.6054266,15.383892 L68.866293,15.383892 C69.0005178,15.383892 69.153701,15.405713 69.153701,15.581111 C69.153701,15.7827847 68.9990012,15.7988672 68.8101764,15.7988672 M0,2.49806611 L2.61488195,2.49806611 L2.61488195,11.981941 L7.45600047,11.981941 L7.45600047,14.3846595 L0,14.3846595 L0,2.49806611 Z M8.61207829,6.32518556 L11.1242062,6.32518556 L11.1242062,14.3802047 L8.61207829,14.3802047 L8.61207829,6.32518556 Z M9.86810432,2.32062948 C10.6674626,2.32078049 11.3251643,2.97571043 11.3251643,3.77160812 C11.3251643,4.56758131 10.6673109,5.22258676 9.86787682,5.22258676 C9.06844275,5.22258676 8.41058935,4.56758131 8.41058935,3.77160812 C8.41058935,2.97563493 9.06844275,2.32062948 9.86787682,2.32062948 C9.86795265,2.32062948 9.86802849,2.32062948 9.86810432,2.32062948 M21.6326464,2.496254 L24.1447743,2.496254 L24.1447743,9.59998628 L26.9918577,6.32156132 L30.0718249,6.32156132 L26.7746713,10.0507508 L30.0024375,14.3836024 L26.8450445,14.3836024 L24.1782926,10.4019244 L24.1453052,10.4019244 L24.1453052,14.3830739 L21.6331773,14.3830739 L21.6326464,2.496254 Z M12.5171112,6.32601611 L14.9295184,6.32601611 L14.9295184,7.42680279 L14.963795,7.42680279 C15.454057,6.59043445 16.3705017,6.08915708 17.3424564,6.12562597 C19.8899226,6.12562597 20.3587996,7.7944364 20.3587996,9.96241005 L20.3587996,14.3796762 L17.8466717,14.3796762 L17.8466717,10.4634609 C17.8466717,9.52863411 17.8294575,8.32697281 16.5383207,8.32697281 C15.2325481,8.32697281 15.0310591,9.34493056 15.0310591,10.3954309 L15.0310591,14.3786946 L12.5189312,14.3786946 L12.5171112,6.32601611 Z" id="Shape"></path>
                        <path d="M35.3621796,9.41582971 C35.3624071,9.40405094 35.3625587,9.39219666 35.3625587,9.38041789 C35.3625587,8.55771594 34.6826379,7.88073855 33.8563588,7.88073855 C33.8441497,7.88073855 33.8320164,7.88088956 33.8198072,7.88119158 C32.9124624,7.8249404 32.1160617,8.51339454 32.0446268,9.41582971 L35.3621796,9.41582971 Z M37.4901363,12.9852508 C36.6452781,14.0053226 35.3826546,14.5943368 34.0548144,14.5879707 C31.5426865,14.5879707 29.5314372,12.9182779 29.5314372,10.3329128 C29.5314372,7.74754782 31.542459,6.0787374 34.0548144,6.0787374 C36.4028392,6.0787374 37.8752933,7.74618873 37.8752933,10.3329128 L37.8752933,11.1171828 L32.0446268,11.1171828 C32.1940183,12.0326048 33.0065715,12.7056559 33.9378037,12.6854206 C34.6636037,12.6808903 35.3395054,12.3097835 35.7305775,11.7010626 L37.4901363,12.9852508 Z M43.111503,8.27223172 C41.855477,8.27223172 41.1018462,9.10731648 41.1018462,10.3240788 C41.1018462,11.540841 41.8551737,12.3766053 43.111503,12.3766053 C44.3678324,12.3766053 45.1230557,11.5428797 45.1230557,10.3240788 C45.1230557,9.10520234 44.3691216,8.27223172 43.111503,8.27223172 M47.4357422,14.3786946 L45.1230557,14.3786946 L45.1230557,13.3104506 L45.0887791,13.3104506 C44.5010714,14.0974387 43.5762092,14.567155 42.591287,14.5787827 C40.1775906,14.5787827 38.587595,12.844283 38.587595,10.3915047 C38.587595,8.13888998 39.9946808,6.07035635 42.3075948,6.07035635 C43.3472686,6.07035635 44.3183891,6.35357542 44.8880485,7.13860039 L44.9210359,7.13860039 L44.9210359,2.49542344 L47.4354388,2.49542344 L47.4357422,14.3786946 Z M64.3948615,14.3833759 L61.8827336,14.3833759 L61.8827336,10.4663301 C61.8827336,9.53225834 61.8659745,8.329842 60.5762027,8.329842 C59.2677759,8.329842 59.0675761,9.34749773 59.0675761,10.3983001 L59.0675761,14.3830739 L56.555524,14.3830739 L56.555524,6.32805475 L58.967097,6.32805475 L58.967097,7.42884142 L59.0009187,7.42884142 C59.4919389,6.59292611 60.4083079,6.09179975 61.3803384,6.12774011 C63.9264396,6.12774011 64.3959232,7.79519144 64.3959232,9.96452419 L64.3948615,14.3833759 Z M53.721029,5.22696605 C53.7208773,5.22696605 53.7208015,5.22696605 53.7207257,5.22696605 C52.9209883,5.22696605 52.2629074,4.57180959 52.2629074,3.77553438 C52.2629074,2.97925917 52.9209883,2.3240272 53.7207257,2.3240272 C54.5203872,2.3240272 55.1783923,2.97910816 55.178544,3.77523236 C55.178544,3.77530786 55.178544,3.77538337 55.178544,3.77553438 C55.178544,4.57165858 54.5206147,5.22689054 53.721029,5.22696605 M54.977055,14.3833759 L52.4623488,14.3833759 L52.4623488,6.32805475 L54.977055,6.32805475 L54.977055,14.3833759 Z M65.6471717,0.00126840033 L51.1999528,0.00126840033 C50.5217761,-0.0063575997 49.9571975,0.542714403 49.9489317,1.21795518 L49.9489317,15.6623543 C49.9568942,16.3379726 50.5213969,16.8876486 51.1999528,16.8804982 L65.6471717,16.8804982 C66.327396,16.8889322 66.8938703,16.3393317 66.9029703,15.6623543 L66.9029703,1.21697361 C66.8938703,0.540298244 66.3266376,-0.00869825318 65.6471717,0.000104398535 M68.8329264,14.697854 C68.2027521,14.7038944 67.6878444,15.2215564 67.6878444,15.8488515 C67.6878444,16.4803749 68.2095771,17 68.843543,17 C69.4782673,17 70,16.4803749 70,15.8488515 C70,15.2215564 69.4850923,14.7038944 68.854918,14.697854 L68.8329264,14.697854 M68.8329264,16.8681684 C68.8268597,16.8682439 68.8215514,16.8683194 68.8154847,16.8683194 C68.259627,16.8683194 67.8023526,16.4127225 67.8023526,15.8589692 C67.8023526,15.3052914 68.259627,14.849619 68.8154847,14.849619 C69.3652757,14.849619 69.8202752,15.2948717 69.8293752,15.8421316 L69.8293752,15.8591202 C69.8407502,16.4007172 69.4031924,16.8559366 68.859468,16.8676398 L68.8329264,16.8676398" id="Shape"></path>
                    </g>
                </g>
            </g>
        </g>
    </g>
</svg>