<?xml version="1.0" encoding="UTF-8"?>
<svg width="30px" height="28px" viewBox="0 0 30 28" version="1.1" xmlns="http://www.w3.org/2000/svg" xmlns:xlink="http://www.w3.org/1999/xlink">
    <title>7CB1E6D9-0A23-4439-9D6F-A1B703433B88</title>
    <g id="Main" stroke="none" stroke-width="1" fill="none" fill-rule="evenodd">
        <g id="PeakActivity_Home" transform="translate(-717.000000, -5375.000000)" fill="#D61E57" fill-rule="nonzero">
            <g id="Footer" transform="translate(0.000000, 4815.000000)">
                <g id="Contact" transform="translate(716.300000, 505.400000)">
                    <path d="M29.8473684,54.6 C30.3210526,54.6 30.7,55.010372 30.7,55.4838782 L30.7,55.4838782 L30.7,79.0013529 C30.7,80.9900789 29.0894737,82.6 27.1,82.6 L27.1,82.6 L4.23684211,82.6 C2.27894737,82.6 0.7,81.021646 0.7,79.064487 L0.7,79.064487 L0.7,74.0137542 C0.7,73.540248 1.07894737,73.1614431 1.55263158,73.1614431 L1.55263158,73.1614431 L6.06842105,73.1614431 L6.06842105,55.4523112 C6.06842105,54.978805 6.44736842,54.6 6.92105263,54.6 L6.92105263,54.6 Z M6.06842105,74.8976325 L2.43684211,74.8976325 L2.43684211,79.0960541 C2.43684211,80.0746336 3.28947368,80.9269448 4.26842105,80.9269448 C5.24736842,80.9269448 6.06842105,80.1062007 6.06842105,79.0960541 L6.06842105,79.0960541 L6.06842105,74.8976325 Z M28.9631579,56.3361894 L7.77368421,56.3361894 L7.77368421,79.064487 C7.77368421,79.7589628 7.58421053,80.3587373 7.26842105,80.8953777 L7.26842105,80.8953777 L27.0684211,80.8953777 C28.1105263,80.8953777 28.9631579,80.0430665 28.9631579,79.0013529 L28.9631579,79.0013529 L28.9631579,56.3361894 Z M25.3947368,76.5391206 C25.8684211,76.5391206 26.2473684,76.9179256 26.2473684,77.3914318 C26.2473684,77.864938 25.8684211,78.243743 25.3947368,78.243743 L25.3947368,78.243743 L11.3421053,78.243743 C10.8684211,78.243743 10.4894737,77.864938 10.4894737,77.3914318 C10.4894737,76.9179256 10.8684211,76.5391206 11.3421053,76.5391206 L11.3421053,76.5391206 Z M25.3947368,72.1512965 C25.8684211,72.1512965 26.2473684,72.5301015 26.2473684,73.0036077 C26.2473684,73.4771139 25.8684211,73.8559188 25.3947368,73.8559188 L25.3947368,73.8559188 L11.3421053,73.8559188 C10.8684211,73.8559188 10.4894737,73.4771139 10.4894737,73.0036077 C10.4894737,72.5301015 10.8684211,72.1512965 11.3421053,72.1512965 L11.3421053,72.1512965 Z M25.3947368,67.7634724 C25.8684211,67.7634724 26.2473684,68.1422773 26.2473684,68.6157835 C26.2473684,69.0892897 25.8684211,69.4680947 25.3947368,69.4680947 L25.3947368,69.4680947 L11.3421053,69.4680947 C10.8684211,69.4680947 10.4894737,69.0892897 10.4894737,68.6157835 C10.4894737,68.1422773 10.8684211,67.7634724 11.3421053,67.7634724 L11.3421053,67.7634724 Z M17.0263158,58.9878241 C17.5,58.9878241 17.8789474,59.3666291 17.8789474,59.8401353 L17.8789474,59.8401353 L17.8789474,64.2279594 C17.8789474,64.7014656 17.5,65.0802706 17.0263158,65.0802706 L17.0263158,65.0802706 L11.3421053,65.0802706 C10.8684211,65.0802706 10.4894737,64.7014656 10.4894737,64.2279594 L10.4894737,64.2279594 L10.4894737,59.8401353 C10.4894737,59.3666291 10.8684211,58.9878241 11.3421053,58.9878241 L11.3421053,58.9878241 Z M25.3947368,63.3756483 C25.8684211,63.3756483 26.2473684,63.7544532 26.2473684,64.2279594 C26.2473684,64.7014656 25.8684211,65.0802706 25.3947368,65.0802706 L25.3947368,65.0802706 L20.4684211,65.0802706 C19.9947368,65.0802706 19.6157895,64.7014656 19.6157895,64.2279594 C19.6157895,63.7544532 19.9947368,63.3756483 20.4684211,63.3756483 L20.4684211,63.3756483 Z M16.1736842,60.7240135 L12.1947368,60.7240135 L12.1947368,63.3756483 L16.1736842,63.3756483 L16.1736842,60.7240135 Z M25.3947368,59.0193912 C25.8684211,59.0193912 26.2473684,59.3981962 26.2473684,59.8717024 C26.2473684,60.3452086 25.8684211,60.7240135 25.3947368,60.7240135 L25.3947368,60.7240135 L20.4684211,60.7240135 C19.9947368,60.7240135 19.6157895,60.3136415 19.6157895,59.8717024 C19.6157895,59.3981962 19.9947368,59.0193912 20.4684211,59.0193912 L20.4684211,59.0193912 Z" id="Newsletter"></path>
                </g>
            </g>
        </g>
    </g>
</svg>