<?xml version="1.0" encoding="UTF-8"?>
<svg width="272px" height="30px" viewBox="0 0 272 30" version="1.1" xmlns="http://www.w3.org/2000/svg" xmlns:xlink="http://www.w3.org/1999/xlink">
    <title>A85475F5-421F-4FF5-9367-B8C4117C45FA</title>
    <g id="Main" stroke="none" stroke-width="1" fill="none" fill-rule="evenodd">
        <g id="PeakActivity_Home" transform="translate(-53.000000, -53.000000)">
            <g id="Logo" transform="translate(53.000000, 53.000000)">
                <path d="M15.4545298,13.1041505 C16.5767215,11.8684098 17.1389904,10.2911299 17.1389904,8.37558835 C17.1389904,6.45881775 16.5843122,4.93083639 15.4756459,3.79164429 C14.3664275,2.65327155 12.8572446,2.08367549 10.9489253,2.08367549 L1.7687872,2.08367549 L1.7687872,14.9587859 L10.9489253,14.9587859 C12.8292278,14.9587859 14.331234,14.3408472 15.4545298,13.1041505 M16.7179098,2.62554966 C18.1772696,4.09781411 18.9072256,6.01444816 18.9072256,8.37558835 C18.9072256,9.93142816 18.5770961,11.3406014 17.9180794,12.6040641 C17.2579585,13.8687557 16.3240179,14.8537705 15.1174996,15.5626588 C13.9102913,16.2704546 12.5207665,16.6248304 10.9489253,16.6248304 L1.7687872,16.6248304 L1.7687872,28.7503573 C1.7687872,28.9719959 1.67742195,29.1668685 1.49496746,29.3329267 C1.31209893,29.4999408 1.10866632,29.5835162 0.88466963,29.5835162 C0.631966027,29.5835162 0.421494704,29.4999408 0.252703603,29.3329267 C0.0844645575,29.1668685 0,28.9719959 0,28.7503573 L0,1.25065322 C0,1.02792218 0.0844645575,0.83304959 0.252703603,0.666991378 C0.421494704,0.49997724 0.617336545,0.41640189 0.842437351,0.41640189 L10.9489253,0.41640189 C13.334497,0.41640189 15.2575838,1.15314864 16.7179098,2.62554966" id="Fill-1" fill="#072530"></path>
                <path d="M40.1037029,28.1668047 C40.2719419,28.332863 40.3564065,28.5277355 40.3564065,28.7501935 C40.3564065,28.9999636 40.2719419,29.201118 40.1037029,29.3543395 C39.9354638,29.5074244 39.7385179,29.5834889 39.5143832,29.5834889 L23.6390488,29.5834889 C23.413948,29.5834889 23.2179681,29.4999135 23.049177,29.3328994 C22.880938,29.1668412 22.7964734,28.9719686 22.7964734,28.7501935 L22.7964734,1.2506259 C22.7964734,1.02789487 22.880938,0.833022278 23.049177,0.666964066 C23.2179681,0.499949928 23.413948,0.416511139 23.6390488,0.416511139 L39.5143832,0.416511139 C39.7385179,0.416511139 39.9354638,0.499949928 40.1037029,0.666964066 C40.2719419,0.833022278 40.3564065,1.02789487 40.3564065,1.2506259 C40.3564065,1.5001229 40.2719419,1.70250635 40.1037029,1.85449878 C39.9354638,2.00758369 39.7385179,2.08364818 39.5143832,2.08364818 L24.5653986,2.08364818 L24.5653986,13.7081327 L37.6190372,13.7081327 C37.8435859,13.7081327 38.0405319,13.7915715 38.2089089,13.9587222 C38.377148,14.1246438 38.4614745,14.3195164 38.4614745,14.5419743 C38.4614745,14.7917444 38.377148,14.9930354 38.2089089,15.1461203 C38.0405319,15.2990687 37.8435859,15.3752697 37.6190372,15.3752697 L24.5653986,15.3752697 L24.5653986,27.9162153 L39.5143832,27.9162153 C39.7385179,27.9162153 39.9354638,27.9997906 40.1037029,28.1668047" id="Fill-3" fill="#072530"></path>
                <path d="M50.7701274,18.8745232 L63.5295201,18.8745232 L57.0867513,3.1672736 L50.7701274,18.8745232 Z M69.4246493,28.7910389 C69.4246493,29.0416284 69.3401848,29.2365009 69.1719457,29.3747007 C69.0037067,29.5138564 68.7932354,29.5835025 68.5405318,29.5835025 C68.3435858,29.5835025 68.167756,29.5350234 68.0140084,29.4379285 C67.8592947,29.3404239 67.7544041,29.2087791 67.6980944,29.0416284 L64.160934,20.458358 L64.2031663,20.5417968 L50.0964811,20.5417968 L46.6854655,29.0416284 C46.5448293,29.4025592 46.2921257,29.5835025 45.9274927,29.5835025 C45.6747891,29.5835025 45.4708045,29.5138564 45.3170569,29.3747007 C45.1623432,29.2365009 45.0708399,29.0694868 45.0432371,28.8746142 C45.0150823,28.7642729 45.0286077,28.6251172 45.0854694,28.4581031 L56.412553,0.874687048 C56.4970176,0.653048497 56.6024603,0.50747444 56.728605,0.437964877 C56.8546118,0.368318752 57.0159502,0.334041933 57.2128961,0.334041933 C57.6338388,0.334041933 57.9141452,0.514985297 58.0547814,0.874687048 L69.3824171,28.4581031 C69.4100199,28.5415419 69.4246493,28.6528391 69.4246493,28.7910389 L69.4246493,28.7910389 Z" id="Fill-5" fill="#072530"></path>
                <path d="M96.2766084,28.9164292 C96.2766084,29.222599 96.1717178,29.4442376 95.9611085,29.5835298 C95.7502231,29.721593 95.5325751,29.7911026 95.3080263,29.7911026 C95.0830635,29.7911026 94.8870837,29.6937346 94.7188446,29.4996814 L82.0861487,14.0422019 L75.7695248,19.8329358 L75.7695248,28.7087199 C75.7412319,28.9582169 75.64338,29.1668821 75.4745889,29.3329403 C75.3063498,29.4996814 75.1092659,29.5835298 74.8852692,29.5835298 C74.6039967,29.5835298 74.3864866,29.4996814 74.232187,29.3329403 C74.0780254,29.1668821 74.0005995,28.9582169 74.0005995,28.7087199 L74.0005995,1.29231799 C74.0005995,1.0417285 74.0850641,0.833063246 74.2533032,0.667005035 C74.4220943,0.499990896 74.6325656,0.416415546 74.8852692,0.416415546 C75.1379728,0.416415546 75.3484441,0.499990896 75.5168212,0.667005035 C75.6850602,0.833063246 75.7695248,1.0417285 75.7695248,1.29231799 L75.7695248,17.7085924 L93.9607338,0.833063246 C94.1289728,0.667005035 94.3255048,0.583429685 94.5506056,0.583429685 C94.7746023,0.583429685 94.9715482,0.667005035 95.1397873,0.833063246 C95.3080263,1.00007738 95.3924909,1.19494997 95.3924909,1.41658852 C95.3924909,1.63931956 95.3080263,1.83309966 95.1397873,2.0001138 L83.4756735,12.7497883 L96.0661371,28.3329039 C96.2062213,28.52764 96.2766084,28.7225125 96.2766084,28.9164292" id="Fill-7" fill="#072530"></path>
                <path d="M149.549882,3.5003323 C149.549882,3.72306334 149.49302,3.90291421 149.380952,4.0420699 C149.212851,4.26480094 149.002242,4.37514225 148.749539,4.37514225 C148.637057,4.37514225 148.468818,4.31942535 148.244269,4.20812811 C145.633459,2.45850821 142.868073,1.58356169 139.948939,1.58356169 C137.590832,1.58356169 135.42208,2.16080516 133.442822,3.31283401 C131.463563,4.4660919 129.898209,6.06276345 128.747724,8.10462396 C127.596411,10.1455285 127.021169,12.4445335 127.021169,15.0004097 C127.021169,17.5564225 127.596411,19.8543349 128.747724,21.8952395 C129.898209,23.9372366 131.463563,25.534864 133.442822,26.6870294 C135.42208,27.8400142 137.590832,28.4163017 139.948939,28.4163017 C142.896089,28.4163017 145.647674,27.5551479 148.201899,25.833523 C148.342121,25.7222258 148.51105,25.6663723 148.707444,25.6663723 C148.987751,25.6663723 149.212851,25.7779427 149.380952,25.9995812 C149.49302,26.1386003 149.549882,26.305751 149.549882,26.4996677 C149.549882,26.7779791 149.4374,26.9996176 149.212851,27.1667683 C148.118125,27.9440737 146.707484,28.6111743 144.981067,29.1668412 C143.254374,29.7216886 141.576538,30 139.948939,30 C137.281267,30 134.825308,29.347648 132.57982,28.0415783 C130.333229,26.7360548 128.550916,24.9374095 127.23164,22.6457789 C125.911951,20.3544214 125.252382,17.8059195 125.252382,15.0004097 C125.252382,12.1950365 125.911951,9.64557861 127.23164,7.35408454 C128.550916,5.06259047 130.333229,3.26476452 132.57982,1.95842172 C134.825308,0.653034841 137.281267,0 139.948939,0 C141.633262,0 143.267623,0.250452927 144.85437,0.750539416 C146.440289,1.2506259 147.879084,1.94449249 149.170619,2.83323167 C149.423323,3.02810426 149.549882,3.24974281 149.549882,3.5003323" id="Fill-9" fill="#072530"></path>
                <path d="M175.013323,0.645619577 C175.182115,0.798704491 175.266441,0.986066223 175.266441,1.20893382 C175.266441,1.45829426 175.188601,1.65316685 175.034854,1.79136661 C174.88014,1.93161479 174.676845,2.00016843 174.42359,2.00016843 L165.033394,2.00016843 L165.033394,28.7504256 C165.033394,28.9720642 164.949068,29.1669368 164.781243,29.3328584 C164.61259,29.4998725 164.415506,29.5834479 164.191509,29.5834479 C163.939495,29.5834479 163.734821,29.4998725 163.581211,29.3328584 C163.426498,29.1669368 163.349624,28.9720642 163.349624,28.7504256 L163.349624,2.00016843 L153.958462,2.00016843 C153.733361,2.00016843 153.537658,1.92410393 153.369281,1.77101902 C153.200489,1.61889003 153.116577,1.4315283 153.116577,1.20893382 C153.116577,0.986066223 153.200489,0.798704491 153.369281,0.645619577 C153.537658,0.493627152 153.733361,0.416470171 153.958462,0.416470171 L174.42359,0.416470171 C174.648552,0.416470171 174.845498,0.493627152 175.013323,0.645619577" id="Fill-12" fill="#072530"></path>
                <path d="M182.424026,29.332913 C182.254959,29.4999272 182.059255,29.5835025 181.834292,29.5835025 C181.553847,29.5835025 181.335233,29.4999272 181.181624,29.332913 C181.02691,29.1668548 180.950036,28.9581896 180.950036,28.7086926 L180.950036,1.29242724 C180.950036,1.04183775 181.034501,0.833035934 181.203292,0.666977722 C181.370979,0.499963584 181.581864,0.416388234 181.834292,0.416388234 C182.087548,0.416388234 182.297329,0.499963584 182.466258,0.666977722 C182.634911,0.833035934 182.719514,1.04183775 182.719514,1.29242724 L182.719514,28.7086926 C182.690255,28.9581896 182.592817,29.1668548 182.424026,29.332913" id="Fill-14" fill="#072530"></path>
                <path d="M213.015957,0.62528564 C213.169566,0.764441329 213.247544,0.944292204 213.247544,1.16702324 C213.247544,1.27845704 213.219389,1.41652024 213.16308,1.58367094 L201.624973,29.0414508 C201.457286,29.4025182 201.189814,29.5834615 200.82532,29.5834615 C200.65639,29.5834615 200.49519,29.5352555 200.340476,29.4378875 C200.186867,29.3403829 200.080734,29.2087381 200.025529,29.0414508 L188.571886,1.70889741 C188.487422,1.54188327 188.445189,1.37486913 188.445189,1.20881092 C188.445189,0.986079879 188.521925,0.798718147 188.676639,0.645633233 C188.830524,0.493640808 189.019879,0.416483827 189.24498,0.416483827 C189.665785,0.416483827 189.974384,0.639214865 190.17133,1.08358445 L200.867552,26.5414281 L211.604764,0.958221429 C211.80171,0.59742719 212.067939,0.416483827 212.405659,0.416483827 C212.657672,0.416483827 212.861243,0.48599339 213.015957,0.62528564" id="Fill-16" fill="#072530"></path>
                <path d="M220.405101,29.332913 C220.236034,29.4999272 220.04033,29.5835025 219.815367,29.5835025 C219.534923,29.5835025 219.316309,29.4999272 219.162699,29.332913 C219.007986,29.1668548 218.931112,28.9581896 218.931112,28.7086926 L218.931112,1.29242724 C218.931112,1.04183775 219.015576,0.833035934 219.184367,0.666977722 C219.352054,0.499963584 219.56294,0.416388234 219.815367,0.416388234 C220.068485,0.416388234 220.278404,0.499963584 220.447333,0.666977722 C220.615986,0.833035934 220.700589,1.04183775 220.700589,1.29242724 L220.700589,28.7086926 C220.67133,28.9581896 220.573892,29.1668548 220.405101,29.332913" id="Fill-18" fill="#072530"></path>
                <path d="M247.660834,0.645619577 C247.829625,0.798704491 247.91409,0.986066223 247.91409,1.20893382 C247.91409,1.45829426 247.836112,1.65316685 247.682364,1.79136661 C247.52765,1.93161479 247.324356,2.00016843 247.0711,2.00016843 L237.680767,2.00016843 L237.680767,28.7504256 C237.680767,28.9720642 237.596578,29.1669368 237.428753,29.3328584 C237.2601,29.4998725 237.063016,29.5834479 236.839019,29.5834479 C236.585902,29.5834479 236.382331,29.4998725 236.228722,29.3328584 C236.074008,29.1669368 235.997134,28.9720642 235.997134,28.7504256 L235.997134,2.00016843 L226.605973,2.00016843 C226.380872,2.00016843 226.185168,1.92410393 226.016239,1.77101902 C225.848552,1.61889003 225.764087,1.4315283 225.764087,1.20893382 C225.764087,0.986066223 225.848552,0.798704491 226.016239,0.645619577 C226.185168,0.493627152 226.380872,0.416470171 226.605973,0.416470171 L247.0711,0.416470171 C247.295925,0.416470171 247.493009,0.493627152 247.660834,0.645619577" id="Fill-20" fill="#072530"></path>
                <path d="M271.831071,1.58361632 L262.230128,14.5002413 L262.230128,28.7503846 C262.230128,28.9720232 262.145664,29.1668958 261.977701,29.332954 C261.809186,29.4998316 261.597886,29.5835435 261.345873,29.5835435 C261.092617,29.5835435 260.882836,29.4998316 260.713907,29.332954 C260.546082,29.1668958 260.461755,28.9720232 260.461755,28.7503846 L260.461755,14.666436 L250.81858,1.58361632 C250.706099,1.44432407 250.649651,1.26460975 250.649651,1.04174215 C250.649651,0.847962054 250.74074,0.667018691 250.923609,0.500004552 C251.106477,0.334082902 251.308806,0.250507552 251.533906,0.250507552 C251.843472,0.250507552 252.081408,0.374641527 252.250337,0.625231016 L261.345873,12.9168161 L270.441684,0.625231016 C270.610337,0.374641527 270.848549,0.250507552 271.156873,0.250507552 C271.410128,0.250507552 271.613699,0.340364709 271.768413,0.521444634 C271.922022,0.702387997 272,0.874728016 272,1.04174215 C272,1.1810344 271.942586,1.36197777 271.831071,1.58361632" id="Fill-22" fill="#072530"></path>
                <path d="M113.392564,2.34462997 C113.282705,2.08953396 113.079135,1.89193015 112.81884,1.78841689 C112.282794,1.57524513 111.67015,1.83266267 111.453744,2.36183665 L100.908786,28.3209958 C100.803757,28.5785499 100.806379,28.8612312 100.916238,29.1166004 C101.026097,29.3716964 101.22953,29.5693002 101.488168,29.6719941 C101.613761,29.7227948 101.746116,29.7484682 101.881784,29.7484682 C102.311836,29.7484682 102.693996,29.4937819 102.854921,29.0993937 L113.400017,3.14037108 C113.504908,2.88254386 113.502423,2.60013565 113.392564,2.34462997" id="Fill-24" fill="#8E0436"></path>
                <path d="M123.994026,28.3209685 L122.903301,25.6495616 L112.764104,0.688253931 C112.727806,0.599489262 112.640857,0.541450824 112.54411,0.541450824 L112.374076,0.541450824 C112.278019,0.541450824 112.191346,0.598806457 112.154772,0.686615198 L111.429647,2.42449085 C111.360916,2.64981655 111.371129,2.88975428 111.461804,3.11152939 L122.048028,29.0995029 C122.209091,29.4937546 122.591251,29.7484409 123.021303,29.7484409 C123.156695,29.7484409 123.28905,29.722904 123.413815,29.672513 C123.673557,29.5692729 123.87699,29.371669 123.986849,29.116573 C124.096846,28.8612039 124.09933,28.5786592 123.994026,28.3209685" id="Fill-26" fill="#D61E57"></path>
            </g>
        </g>
    </g>
</svg>