<?xml version="1.0" encoding="UTF-8"?>
<svg width="203px" height="23px" viewBox="0 0 203 23" version="1.1" xmlns="http://www.w3.org/2000/svg" xmlns:xlink="http://www.w3.org/1999/xlink">
    <title>AFE411E1-332B-4D2D-990D-3E789C3E16D4</title>
    <defs>
        <polygon id="path-1" points="0 0 18.1337957 0 18.1337957 23 0 23"></polygon>
    </defs>
    <g id="Main" stroke="none" stroke-width="1" fill="none" fill-rule="evenodd">
        <g id="PeakActivity_Home" transform="translate(-221.000000, -5057.000000)">
            <g id="Footer" transform="translate(0.000000, 4815.000000)">
                <g id="Logo---Dark" transform="translate(221.000000, 242.000000)">
                    <path d="M11.5340792,10.04652 C12.3715973,9.09911832 12.7912318,7.88986985 12.7912318,6.42128732 C12.7912318,4.95176253 12.3772624,3.78030962 11.5498387,2.90692861 C10.7220029,2.03417578 9.59566419,1.59748527 8.17144056,1.59748527 L1.32008751,1.59748527 L1.32008751,11.4684077 L8.17144056,11.4684077 C9.57475456,11.4684077 10.6957371,10.9946545 11.5340792,10.04652 M12.4769694,2.01292232 C13.566124,3.14165892 14.1109073,4.61107902 14.1109073,6.42128732 C14.1109073,7.61409838 13.864524,8.69446504 13.3726842,9.66312018 C12.8800205,10.6327176 12.1829986,11.3878959 11.2825457,11.9313771 C10.3815777,12.4740208 9.34454267,12.7457091 8.17144056,12.7457091 L1.32008751,12.7457091 L1.32008751,22.0419507 C1.32008751,22.2118736 1.25189947,22.361276 1.11572939,22.4885874 C0.979250308,22.6166316 0.827423764,22.6807061 0.660249761,22.6807061 C0.471651116,22.6807061 0.314571415,22.6166316 0.188598645,22.4885874 C0.0630378867,22.361276 0,22.2118736 0,22.0419507 L0,0.958834569 C0,0.788074029 0.0630378867,0.638671643 0.188598645,0.51136029 C0.314571415,0.383316058 0.460732789,0.319241594 0.628730817,0.319241594 L8.17144056,0.319241594 C9.95184885,0.319241594 11.3870938,0.884081028 12.4769694,2.01292232" id="Fill-1" fill="#FFFFFF"></path>
                    <path d="M29.9303371,21.5945601 C30.0558978,21.7218715 30.1189357,21.8712739 30.1189357,22.041825 C30.1189357,22.2333155 30.0558978,22.387534 29.9303371,22.5050038 C29.8047763,22.622369 29.6577909,22.6806851 29.4905139,22.6806851 L17.6423783,22.6806851 C17.4743803,22.6806851 17.3281159,22.6166107 17.2021431,22.4885664 C17.0765824,22.3612551 17.0135445,22.2118527 17.0135445,22.041825 L17.0135445,0.95881363 C17.0135445,0.788053089 17.0765824,0.638650704 17.2021431,0.51133935 C17.3281159,0.383295119 17.4743803,0.319325352 17.6423783,0.319325352 L29.4905139,0.319325352 C29.6577909,0.319325352 29.8047763,0.383295119 29.9303371,0.51133935 C30.0558978,0.638650704 30.1189357,0.788053089 30.1189357,0.95881363 C30.1189357,1.15009475 30.0558978,1.30525546 29.9303371,1.42178304 C29.8047763,1.5391482 29.6577909,1.59746433 29.4905139,1.59746433 L18.333735,1.59746433 L18.333735,10.5095732 L28.0759726,10.5095732 C28.2435586,10.5095732 28.390544,10.5735429 28.5162078,10.7016919 C28.6417685,10.8288985 28.7047034,10.9783009 28.7047034,11.148852 C28.7047034,11.3403426 28.6417685,11.4946657 28.5162078,11.6120309 C28.390544,11.7292913 28.2435586,11.7877121 28.0759726,11.7877121 L18.333735,11.7877121 L18.333735,21.4024414 L29.4905139,21.4024414 C29.6577909,21.4024414 29.8047763,21.4665159 29.9303371,21.5945601" id="Fill-3" fill="#FFFFFF"></path>
                    <path d="M37.8909406,14.4704744 L47.4135756,14.4704744 L42.6051857,2.4282442 L37.8909406,14.4704744 Z M51.8132493,22.0731398 C51.8132493,22.2652585 51.7502114,22.4146609 51.6246507,22.5206141 C51.4990899,22.6273002 51.3420102,22.6806956 51.1534116,22.6806956 C51.0064262,22.6806956 50.8752002,22.6435282 50.7604548,22.5690888 C50.6449884,22.4943352 50.566706,22.3934075 50.5246808,22.2652585 L47.8848147,15.6847483 L47.9163337,15.748718 L37.3881826,15.748718 L34.8424614,22.2652585 C34.7375013,22.5419723 34.5489026,22.6806956 34.2767685,22.6806956 C34.0881698,22.6806956 33.9359313,22.6273002 33.8211858,22.5206141 C33.7057194,22.4146609 33.6374283,22.2866167 33.6168277,22.1372143 C33.5958151,22.0526193 33.6059094,21.9459332 33.6483467,21.817889 L42.1020157,0.670593708 C42.1650536,0.500670743 42.2437479,0.389063915 42.3378927,0.335773225 C42.4319345,0.282377838 42.5523452,0.256098932 42.6993306,0.256098932 C43.01349,0.256098932 43.2226892,0.394822241 43.3276494,0.670593708 L51.7817304,21.817889 C51.802331,21.8818587 51.8132493,21.9671866 51.8132493,22.0731398 L51.8132493,22.0731398 Z" id="Fill-5" fill="#FFFFFF"></path>
                    <path d="M71.8534982,22.1692725 C71.8534982,22.4040028 71.7752159,22.5739258 71.6180332,22.6807165 C71.4606445,22.786565 71.2982086,22.8398557 71.1306226,22.8398557 C70.9627275,22.8398557 70.8164632,22.7652069 70.6909024,22.6164327 L61.2628242,10.765693 L56.5485791,15.2052577 L56.5485791,22.0100286 C56.5274635,22.2013097 56.4544343,22.3612865 56.3284616,22.4885978 C56.2029008,22.6164327 56.0558124,22.6807165 55.8886384,22.6807165 C55.6787181,22.6807165 55.5163853,22.6164327 55.4012278,22.4885978 C55.2861734,22.3612865 55.2283886,22.2013097 55.2283886,22.0100286 L55.2283886,0.990777574 C55.2283886,0.798658879 55.2914265,0.638682113 55.4169873,0.511370759 C55.54296,0.383326528 55.7000398,0.319252064 55.8886384,0.319252064 C56.077237,0.319252064 56.2343167,0.383326528 56.3599805,0.511370759 C56.4855413,0.638682113 56.5485791,0.798658879 56.5485791,0.990777574 L56.5485791,13.5765937 L70.1251065,0.638682113 C70.2506672,0.511370759 70.3973436,0.447296295 70.5653417,0.447296295 C70.7325157,0.447296295 70.8795011,0.511370759 71.0050618,0.638682113 C71.1306226,0.766726344 71.1936605,0.91612873 71.1936605,1.0860517 C71.1936605,1.25681224 71.1306226,1.40537705 71.0050618,1.53342128 L62.2998593,9.77484217 L71.6964185,21.7219029 C71.8009666,21.8712006 71.8534982,22.020603 71.8534982,22.1692725" id="Fill-7" fill="#FFFFFF"></path>
                    <g id="Group-11" transform="translate(93.478800, 0.000000)">
                        <mask id="mask-2" fill="white">
                            <use xlink:href="#path-1"></use>
                        </mask>
                        <g id="Clip-10"></g>
                        <path d="M18.1337957,2.68358932 C18.1337957,2.85434986 18.0913585,2.99223559 18.00772,3.09892167 C17.8822622,3.26968221 17.7250795,3.35427725 17.5364809,3.35427725 C17.4525333,3.35427725 17.3269726,3.31156094 17.1593866,3.22623302 C15.2108772,1.88485715 13.1470045,1.21406452 10.9683863,1.21406452 C9.2084756,1.21406452 7.58988516,1.65661805 6.11271795,2.53984056 C4.63555074,3.42400535 3.46728977,4.64812076 2.60865607,6.21354786 C1.74940436,7.77824209 1.32008751,9.54081333 1.32008751,11.5003193 C1.32008751,13.45993 1.74940436,15.2216637 2.60865607,16.7863579 C3.46728977,18.3518897 4.63555074,19.576738 6.11271795,20.4600652 C7.58988516,21.3440206 9.2084756,21.7858413 10.9683863,21.7858413 C13.1679141,21.7858413 15.2214866,21.125623 17.1277646,19.80571 C17.2324158,19.7203821 17.3584915,19.6775611 17.5050649,19.6775611 C17.7142642,19.6775611 17.8822622,19.7630984 18.00772,19.9330213 C18.0913585,20.0396027 18.1337957,20.1677516 18.1337957,20.3164212 C18.1337957,20.5297933 18.0498482,20.6997163 17.8822622,20.8278652 C17.0652417,21.4237996 16.0124472,21.9352436 14.7239817,22.3612551 C13.4353101,22.7866383 12.1831016,23.0000105 10.9683863,23.0000105 C8.97743969,23.0000105 7.14449983,22.4998737 5.46863967,21.4985531 C3.79195549,20.4976514 2.46177368,19.1186893 1.47716721,17.3617717 C0.492251733,15.6050635 0,13.6512111 0,11.5003193 C0,9.34953221 0.492251733,7.39494697 1.47716721,5.63813405 C2.46177368,3.88132113 3.79195549,2.50298727 5.46863967,1.50145733 C7.14449983,0.500660273 8.97743969,0 10.9683863,0 C12.2254359,0 13.4451984,0.192013998 14.6294248,0.575413814 C15.8130333,0.95881363 16.8868404,1.49077826 17.8507433,2.17214527 C18.0393419,2.32154766 18.1337957,2.49147062 18.1337957,2.68358932" id="Fill-9" fill="#FFFFFF" mask="url(#mask-2)"></path>
                    </g>
                    <path d="M130.616561,0.494975235 C130.742534,0.612340389 130.805469,0.755984448 130.805469,0.926849686 C130.805469,1.11802611 130.747375,1.2674285 130.63263,1.37338169 C130.517163,1.48090535 130.36544,1.53346316 130.176429,1.53346316 L123.168305,1.53346316 L123.168305,22.042003 C123.168305,22.211926 123.10537,22.3613284 122.980119,22.488535 C122.854249,22.6165792 122.707161,22.6806537 122.539987,22.6806537 C122.351903,22.6806537 122.199149,22.6165792 122.084507,22.488535 C121.96904,22.3613284 121.911668,22.211926 121.911668,22.042003 L121.911668,1.53346316 L114.902823,1.53346316 C114.734825,1.53346316 114.588767,1.47514702 114.463103,1.35778187 C114.33713,1.24114959 114.274504,1.09750553 114.274504,0.926849686 C114.274504,0.755984448 114.33713,0.612340389 114.463103,0.494975235 C114.588767,0.378447655 114.734825,0.319293943 114.902823,0.319293943 L130.176429,0.319293943 C130.344324,0.319293943 130.491309,0.378447655 130.616561,0.494975235" id="Fill-12" fill="#FFFFFF"></path>
                    <path d="M136.147343,22.4885769 C136.021164,22.6166211 135.875106,22.6806956 135.70721,22.6806956 C135.497908,22.6806956 135.334751,22.6166211 135.220109,22.4885769 C135.104642,22.3612655 135.04727,22.2012888 135.04727,22.0100077 L135.04727,0.990861332 C135.04727,0.798742637 135.110308,0.638661173 135.23628,0.51134982 C135.361429,0.383305589 135.518818,0.319231125 135.70721,0.319231125 C135.896221,0.319231125 136.052786,0.383305589 136.178862,0.51134982 C136.304731,0.638661173 136.367872,0.798742637 136.367872,0.990861332 L136.367872,22.0100077 C136.346036,22.2012888 136.273315,22.3612655 136.147343,22.4885769" id="Fill-14" fill="#FFFFFF"></path>
                    <path d="M158.978821,0.479385876 C159.093463,0.586071952 159.15166,0.723957686 159.15166,0.894718227 C159.15166,0.980150845 159.130647,1.08599935 159.088622,1.21414828 L150.477461,22.2651224 C150.352312,22.5419409 150.152692,22.6806642 149.880661,22.6806642 C149.754586,22.6806642 149.634278,22.6437062 149.518811,22.5690574 C149.404169,22.4943038 149.32496,22.3933761 149.283758,22.2651224 L140.735636,1.31015527 C140.672598,1.18211104 140.641079,1.05406681 140.641079,0.926755459 C140.641079,0.755994918 140.698348,0.612350858 140.813815,0.494985704 C140.928663,0.378458125 141.069984,0.319304412 141.237982,0.319304412 C141.552038,0.319304412 141.782353,0.490064953 141.929338,0.830748459 L149.91218,20.3484374 L157.925614,0.734636763 C158.072599,0.458027721 158.271292,0.319304412 158.523341,0.319304412 C158.711425,0.319304412 158.863354,0.372595102 158.978821,0.479385876" id="Fill-16" fill="#FFFFFF"></path>
                    <path d="M164.493513,22.4885769 C164.367334,22.6166211 164.221276,22.6806956 164.053381,22.6806956 C163.844078,22.6806956 163.680922,22.6166211 163.566279,22.4885769 C163.450813,22.3612655 163.39344,22.2012888 163.39344,22.0100077 L163.39344,0.990861332 C163.39344,0.798742637 163.456478,0.638661173 163.582451,0.51134982 C163.707599,0.383305589 163.864988,0.319231125 164.053381,0.319231125 C164.242288,0.319231125 164.398956,0.383305589 164.525032,0.51134982 C164.650902,0.638661173 164.714043,0.798742637 164.714043,0.990861332 L164.714043,22.0100077 C164.692206,22.2012888 164.619486,22.3612655 164.493513,22.4885769" id="Fill-18" fill="#FFFFFF"></path>
                    <path d="M184.835108,0.494975235 C184.96108,0.612340389 185.024118,0.755984448 185.024118,0.926849686 C185.024118,1.11802611 184.965922,1.2674285 184.851176,1.37338169 C184.73571,1.48090535 184.583986,1.53346316 184.394975,1.53346316 L177.386749,1.53346316 L177.386749,22.042003 C177.386749,22.211926 177.323917,22.3613284 177.198665,22.488535 C177.072795,22.6165792 176.925707,22.6806537 176.758533,22.6806537 C176.569625,22.6806537 176.417696,22.6165792 176.303053,22.488535 C176.187587,22.3613284 176.130214,22.211926 176.130214,22.042003 L176.130214,1.53346316 L169.121369,1.53346316 C168.953371,1.53346316 168.807313,1.47514702 168.681237,1.35778187 C168.556088,1.24114959 168.493051,1.09750553 168.493051,0.926849686 C168.493051,0.755984448 168.556088,0.612340389 168.681237,0.494975235 C168.807313,0.378447655 168.953371,0.319293943 169.121369,0.319293943 L184.394975,0.319293943 C184.562767,0.319293943 184.709856,0.378447655 184.835108,0.494975235" id="Fill-20" fill="#FFFFFF"></path>
                    <path d="M202.873924,1.2141064 L195.708515,11.1168567 L195.708515,22.0419716 C195.708515,22.2118946 195.645477,22.3612969 195.520122,22.4886083 C195.394355,22.6165478 195.236658,22.680727 195.048574,22.680727 C194.859563,22.680727 194.702999,22.6165478 194.576923,22.4886083 C194.451671,22.3612969 194.388736,22.2118946 194.388736,22.0419716 L194.388736,11.2442727 L187.191808,1.2141064 C187.10786,1.10731562 187.065732,0.969534586 187.065732,0.798669349 C187.065732,0.650104538 187.133714,0.511381229 187.270193,0.383336998 C187.406672,0.256130341 187.557675,0.192055877 187.725673,0.192055877 C187.956709,0.192055877 188.134286,0.287225302 188.260362,0.479343997 L195.048574,9.90289687 L201.836992,0.479343997 C201.962862,0.287225302 202.140645,0.192055877 202.370754,0.192055877 C202.559765,0.192055877 202.711694,0.260946396 202.827161,0.399774401 C202.941803,0.53849771 203,0.670625117 203,0.798669349 C203,0.905460122 202.957151,1.04418343 202.873924,1.2141064" id="Fill-22" fill="#FFFFFF"></path>
                    <path d="M84.6275388,1.79755046 C84.5455484,1.60197677 84.3936188,1.45048044 84.199355,1.37112024 C83.799291,1.20768848 83.3420603,1.40504202 83.1805515,1.81074226 L75.310601,21.7127733 C75.2322156,21.9102316 75.2341727,22.126954 75.3161631,22.3227371 C75.3981536,22.5183108 75.5499801,22.6698071 75.7430079,22.7485391 C75.8367407,22.7874864 75.9355207,22.8071694 76.0367727,22.8071694 C76.3577303,22.8071694 76.6429459,22.6119098 76.7630474,22.3095453 L84.633101,2.40761893 C84.7113833,2.2099513 84.7095293,1.99343824 84.6275388,1.79755046" id="Fill-24" fill="#8E0436"></path>
                    <path d="M92.5396588,21.7127524 L91.7256255,19.6646729 L84.158504,0.527661587 C84.1314142,0.459608643 84.0665222,0.415112488 83.9943171,0.415112488 L83.8674173,0.415112488 C83.7957271,0.415112488 83.7310412,0.459085159 83.7037454,0.526405225 L83.1625672,1.85877717 C83.1112716,2.03152695 83.1188939,2.21547929 83.1865669,2.38550695 L91.0873154,22.3096291 C91.20752,22.6118888 91.4927355,22.8071484 91.8136931,22.8071484 C91.9147391,22.8071484 92.0135191,22.7875701 92.1066339,22.748937 C92.3004857,22.6697862 92.4523122,22.5182899 92.5343027,22.3227162 C92.6163961,22.1269331 92.6182502,21.9103153 92.5396588,21.7127524" id="Fill-26" fill="#D61E57"></path>
                </g>
            </g>
        </g>
    </g>
</svg>