<?xml version="1.0" encoding="UTF-8"?>
<svg width="30px" height="38px" viewBox="0 0 30 38" version="1.1" xmlns="http://www.w3.org/2000/svg" xmlns:xlink="http://www.w3.org/1999/xlink">
    <title>F0CC076D-20B9-4322-9A3F-A8D6786A8FF3</title>
    <g id="Desktop" stroke="none" stroke-width="1" fill="none" fill-rule="evenodd">
        <g id="PeakActivity_Home" transform="translate(-685.000000, -1865.000000)">
            <g id="Services" transform="translate(0.000000, 1742.000000)">
                <g id="Mark" transform="translate(685.000000, 123.000000)">
                    <path d="M16.2147689,2.34603919 C16.0729502,2.0141447 15.8101578,1.75705084 15.4741399,1.62237417 C14.7821497,1.34502551 13.9912783,1.67994045 13.7119167,2.36842607 L0.099272418,36.1427767 C-0.0363106236,36.4778693 -0.0329255017,36.8456539 0.108893291,37.1779037 C0.250712083,37.5097982 0.513326279,37.7668921 0.8472062,37.9005027 C1.00933572,37.9665973 1.1801953,38 1.35533082,38 C1.91049082,38 2.4038278,37.6686385 2.61156738,37.1555169 L16.2243898,3.38134389 C16.3597947,3.04589592 16.3565877,2.67846669 16.2147689,2.34603919" id="Fill-24" fill="#8E0436"></path>
                    <path d="M29.9003537,36.1427412 L28.4923211,32.6670881 L15.4034799,0.190999237 C15.3566227,0.0755113262 15.2443792,0 15.119486,0 L14.8999876,0 C14.7759852,0 14.664098,0.0746229577 14.6168845,0.188867152 L13.6808092,2.44994277 C13.5920834,2.74310439 13.6052675,3.0552771 13.7223215,3.3438192 L27.3882369,37.155659 C27.5961546,37.668603 28.0894916,37.9999645 28.6446516,37.9999645 C28.8194308,37.9999645 28.9902904,37.9667395 29.1513509,37.9011779 C29.4866562,37.7668566 29.7492703,37.5097627 29.8910891,37.1778682 C30.0330861,36.8456184 30.0362931,36.4780115 29.9003537,36.1427412" id="Fill-26" fill="#D61E57"></path>
                </g>
            </g>
        </g>
    </g>
</svg>