<?xml version="1.0" encoding="UTF-8"?>
<svg width="94px" height="15px" viewBox="0 0 94 15" version="1.1" xmlns="http://www.w3.org/2000/svg" xmlns:xlink="http://www.w3.org/1999/xlink">
    <title>099F0B1D-B1DB-4F1A-BC63-C1FE8EE86700</title>
    <g id="Desktop" stroke="none" stroke-width="1" fill="none" fill-rule="evenodd">
        <g id="PeakActivity_Contact" transform="translate(-1036.000000, -1269.000000)" fill="#FFFFFF" fill-rule="nonzero">
            <g id="Intro-v2" transform="translate(0.000000, 798.000000)">
                <g id="Social" transform="translate(716.000000, 403.000000)">
                    <g id="Twitter" transform="translate(320.000000, 68.000000)">
                        <path d="M19.1056911,1.77561573 C18.4033301,2.07723435 17.6474486,2.28068642 16.8543353,2.37173403 C17.6641253,1.90338213 18.2850418,1.16151271 18.5778538,0.276514962 C17.820421,0.710770845 16.9819316,1.025878 16.088758,1.19598341 C15.3739865,0.460108907 14.355156,0 13.2277329,0 C11.0632512,0 9.30831843,1.69543388 9.30831843,3.78690613 C9.30831843,4.08327921 9.34283534,4.37215867 9.40993001,4.64979767 C6.1521543,4.49168207 3.26359317,2.98433831 1.33025842,0.693160813 C0.992845931,1.25218564 0.799706371,1.90263276 0.799706371,2.5972923 C0.799706371,3.91092571 1.49159588,5.07019034 2.54339204,5.74911325 C1.90114483,5.72925513 1.29651717,5.55877504 0.767904275,5.27514113 C0.767516444,5.29087775 0.767516444,5.30698906 0.767516444,5.32310036 C0.767516444,7.15754109 2.1187177,8.68774042 3.91204567,9.03619423 C3.58316545,9.12237098 3.23683287,9.16883149 2.8792532,9.16883149 C2.62638775,9.16883149 2.38089108,9.14522656 2.1415997,9.10063946 C2.64073748,10.6049858 4.08812069,11.7001798 5.8031069,11.7305291 C4.4616014,12.7462907 2.77182417,13.351776 0.935059195,13.351776 C0.618977385,13.351776 0.30677388,13.3337913 0,13.2985712 C1.7351534,14.3735325 3.7953087,15 6.00865704,15 C13.2188128,15 17.1611092,9.22990458 17.1611092,4.22565819 C17.1611092,4.06154768 17.1576187,3.89781186 17.15025,3.73520008 C17.9158273,3.20240296 18.5805686,2.53509517 19.1056911,1.77561573 Z" id="Twitter-Green"></path>
                        <path d="M28.9260733,14.1079665 C27.5863865,13.7538323 26.3569939,12.7552106 25.7280263,11.5102367 C25.2460061,10.5561287 25.2466108,10.5628008 25.2454718,6.17771898 C25.1883661,2.384506 25.2101983,2.26210973 25.4679095,1.89627894 C26.0152679,1.00064658 27.2223028,0.809382879 28.013686,1.49288579 C28.5693091,1.97276454 28.613477,2.13572724 28.613477,3.70589638 L28.613477,5.06757524 L30.9477811,5.06757524 C32.3756334,5.06757524 33.4180409,5.09618444 33.6322021,5.14124832 C34.8503961,5.3975891 35.3128429,6.82697754 34.4670369,7.72165366 C34.3673616,7.82708978 34.1620492,7.9788801 34.0107868,8.05896742 C33.7453172,8.19952059 33.6468059,8.20529398 31.1746204,8.22520492 L28.613477,8.24583736 L28.613477,8.85309084 C28.613477,9.73630946 28.7068396,10.0252759 29.1246592,10.4352374 C29.612562,10.9139669 29.7428112,10.9365147 32.0301339,10.9382904 C33.8046598,10.9395865 33.9642618,10.9496528 34.25143,11.0771859 C35.3408483,11.5610552 35.6122533,12.849398 34.8089449,13.723675 C34.33939,14.2347105 34.3084051,14.2398358 31.7074764,14.2369225 C29.6773923,14.2346615 29.3474521,14.2193517 28.9260718,14.1079665 L28.9260733,14.1079665 Z M39.3209659,14.1369487 C38.2632252,13.885477 37.1715774,13.0969541 36.5043538,12.1024425 C35.8894763,11.1859588 35.769617,10.5411041 35.7663367,8.13249505 C35.7637227,6.05533278 35.8062467,5.79373561 36.2134958,5.38229514 C36.5904543,5.00144978 36.8306425,4.90272889 37.3852014,4.90069978 C37.8086849,4.89905805 37.9155857,4.92542788 38.2084501,5.10308544 C38.4168506,5.22951114 38.6242604,5.43293512 38.7531035,5.63727069 C39.0110452,6.07590042 38.9637423,6.25987861 38.9955638,8.06413597 C39.0292316,10.117656 39.0332737,10.1662438 39.1911599,10.4154186 C39.724484,11.2570915 40.8272762,11.3811238 41.5587928,10.6817076 C41.9811212,10.2779098 42.0208082,10.040662 42.0208082,7.91979389 C42.0208082,6.17586988 42.0288072,6.05847798 42.1660779,5.79010798 C42.4410671,5.25245927 42.839777,4.96787509 43.4290929,4.88862015 C44.0597117,4.80380639 44.7397894,5.16854702 45.0656113,5.76631307 C45.2108297,6.03273028 45.2195464,6.14208205 45.252319,8.10854892 C45.2406066,9.74445327 45.3190397,10.2231987 45.4763624,10.4522911 C45.9795044,11.197664 47.037116,11.3579985 47.6975557,10.7890303 C48.1709077,10.3812347 48.1706435,10.3826259 48.2095819,8.1033847 C48.2430076,6.14696258 48.2521896,6.03203903 48.3962896,5.76631307 C49.0011236,4.65098494 50.5321986,4.5806846 51.1978546,5.63767536 C51.6284447,6.2233949 51.4399729,7.46286759 51.4399729,8.26215235 C51.4712205,9.31392992 51.4083275,10.6625744 51.2208948,11.0782329 C50.7109704,12.4904279 49.5752002,13.6120925 48.2088069,14.0529069 C47.5889891,14.2528645 46.2231564,14.3008547 45.6077402,14.1442933 C45.0144307,13.9933555 44.5009911,13.7621374 44.012375,13.4258361 L43.6021861,13.14352 L43.1920647,13.4257914 C42.6961085,13.7671418 42.1940878,13.9983426 41.6453967,14.1380936 C41.1339708,14.2683558 39.8710527,14.2677293 39.3209659,14.1369415 L39.3209659,14.1369487 Z M53.6007743,14.1467847 C53.2875571,14.0129583 52.8963898,13.6515875 52.7254335,13.3381147 C52.5759984,13.0641096 52.5747846,13.0338529 52.5747846,9.58756352 C52.5747846,6.27123963 52.5809343,6.10110952 52.7096967,5.8462967 C53.2451241,4.78684047 54.6275991,4.54839449 55.4658918,5.37092548 C55.9872512,5.88247223 55.9857952,5.86982231 55.9634552,9.69656246 C55.9441709,12.999453 55.9410476,13.0668875 55.795132,13.3317293 C55.6031288,13.6802183 55.2544077,14.0058628 54.9318706,14.1378618 C54.6199699,14.2655015 53.8901015,14.2703964 53.6007743,14.1467904 L53.6007743,14.1467847 Z M60.8159633,14.1088004 C59.2875684,13.7156435 57.9569755,12.5309079 57.3951161,11.0629246 C57.0919088,10.2707381 57.0679308,9.86716636 57.0910149,5.94459275 C57.112307,2.32656035 57.1150179,2.26358296 57.2610524,1.99803989 C57.9893004,0.673826895 59.9825742,0.841458418 60.4148904,2.26327046 C60.4878298,2.50314935 60.516051,2.93897374 60.516051,3.82554781 L60.516051,5.05514135 L62.1489941,5.07955695 C63.6588944,5.10213209 63.8026612,5.11484825 64.0569615,5.24825703 C65.2520184,5.875204 65.2574504,7.43071284 64.0667658,8.05498984 C63.7997977,8.19496264 63.6792207,8.20572889 62.1433668,8.22672712 L60.5047907,8.24913521 L60.5276107,9.03640803 C60.5542423,9.9551426 60.6608937,10.2304928 61.1254569,10.5799366 C61.5323083,10.8859669 61.7884608,10.9359228 62.9568758,10.9370936 C63.8943932,10.9379577 64.0198269,10.9525705 64.3358092,11.0969457 C65.6563673,11.7003037 65.6549774,13.5272355 64.3335049,14.1162472 C63.9250464,14.2983028 61.5329878,14.2932408 60.8159604,14.1088018 L60.8159633,14.1088004 Z M69.5693091,14.1120406 C67.8378849,13.647355 66.4163817,12.220216 65.9680121,10.4964693 C65.8577866,10.0727145 65.8456089,9.64500225 65.845132,6.180736 C65.8712784,2.58483807 65.68943,2.72544595 66.0326572,1.98538278 C66.427832,1.24999275 67.2434025,0.925958231 68.106986,1.1612187 C68.4669915,1.25929873 69.0727126,1.8536258 69.1726681,2.20685852 C69.2142735,2.35388929 69.2473848,3.04416503 69.2475985,3.76895442 L69.2480094,5.06760693 L70.6481137,5.06760693 C72.2517656,5.06760693 72.6775599,5.12588812 73.0639419,5.39826883 C73.9005215,5.98802643 73.9195755,7.30954498 73.0998994,7.89214956 C72.6909502,8.18282253 72.3042201,8.23834159 70.6884918,8.23834159 L69.2480094,8.23834159 L69.2480094,8.84936096 C69.2480094,9.65413398 69.3421545,9.9924875 69.6667541,10.3543191 C70.1093234,10.847647 70.2734908,10.8946709 71.6945016,10.9351538 C72.9313819,10.9703861 72.9395097,10.9716202 73.275879,11.1753798 C73.6610651,11.4087076 74.0173696,11.9244508 74.0865211,12.3487659 C74.1866044,12.9628858 73.8587038,13.654436 73.2931845,14.0219431 L73.005701,14.2087655 L71.5222003,14.2233869 C70.2557842,14.2358727 69.9700115,14.2195706 69.5693146,14.1120377 L69.5693091,14.1120406 Z M78.1518472,14.142545 C77.1466851,13.8762617 76.406014,13.4385508 75.6810238,12.6823771 C74.8004093,11.7638845 74.4033203,10.7515155 74.4058514,9.4313895 C74.4074223,8.62498052 74.5481608,7.99459025 74.8755645,7.32759818 C75.2213978,6.62305816 75.6006595,6.16363183 76.1593628,5.77244793 C77.7861602,4.63342426 80.6777217,4.56224833 82.4990979,5.61639344 C83.1510762,5.99373502 83.8290381,6.70786184 84.1593921,7.36524694 C84.8273951,8.69453776 84.7601605,9.89854777 83.9960684,10.2899808 C83.7317057,10.4254072 83.6084594,10.431604 80.8161246,10.4498401 L77.9112027,10.4688106 L77.9112027,10.6458057 C77.9112027,10.9217205 78.3589196,11.2956634 78.8516995,11.4313274 C79.1875938,11.523804 79.5929255,11.5440706 81.1128459,11.5443773 C82.1412503,11.5443773 83.0753399,11.5748976 83.2134675,11.612542 C84.397026,11.9351191 84.6342828,13.4732084 83.5928557,14.0720488 C83.2554894,14.2957869 83.051891,14.239555 80.8960279,14.2380717 C79.108613,14.2347739 78.4078351,14.2103741 78.1518472,14.1425565 L78.1518472,14.142545 Z M81.1745647,8.15400163 C81.0450942,7.72834585 80.674026,7.47637148 79.9954132,7.35328252 C79.2735658,7.22235216 78.264318,7.51531202 78.0696156,7.9122938 C77.9838806,8.08710139 77.9019874,8.28610424 77.9019874,8.28610424 C77.9019874,8.28610424 78.5026692,8.3057934 79.5681267,8.3057934 L81.2207354,8.3057934 L81.1745647,8.15400163 Z M86.363092,14.1126354 C86.0087749,13.9237248 85.6314137,13.4850072 85.5415347,13.1575021 C85.4889878,12.9660267 85.472123,12.2170377 85.4894202,10.8430877 C85.5146155,8.84185367 85.5177821,8.8035511 85.7031405,8.25759297 C86.1913802,6.8195149 87.4968335,5.62673486 89.0152232,5.23136888 C89.5734005,5.08602592 92.1501892,5.0163837 92.7122702,5.13144838 C93.4928202,5.29122987 94,5.88224037 94,6.63201276 C94,7.27146851 93.7038861,7.76630423 93.1490952,8.05395729 C92.8879261,8.18937502 92.7379435,8.20379051 91.2497785,8.23652274 C89.7067263,8.27046466 89.6223549,8.27917875 89.3747178,8.43024615 C89.0478518,8.62964503 88.8095286,8.9371111 88.7129591,9.2839987 C88.6676426,9.44677706 88.6376826,10.2512534 88.6374516,11.3114931 C88.6370553,13.0687064 88.6370553,13.0692176 88.4583248,13.4210808 C88.3376373,13.6587103 88.1757328,13.8435684 87.959847,13.9902261 C87.6790962,14.1809498 87.577239,14.2096411 87.1244458,14.2255356 C86.7192127,14.2397494 86.5561631,14.21557 86.363092,14.1126354 L86.363092,14.1126354 Z M53.516375,3.88091566 C52.424896,3.34723877 52.2265097,1.93772238 53.1329659,1.15681484 C53.4860814,0.852607739 53.7701644,0.75 54.2592958,0.75 C54.9432527,0.75 55.4745469,1.06355053 55.7817377,1.64849097 C56.5162705,3.04715038 54.955944,4.58479179 53.516375,3.88091566 L53.516375,3.88091566 Z" id="path4223"></path>
                    </g>
                </g>
            </g>
        </g>
    </g>
</svg>